<mxfile host="65bd71144e">
    <diagram id="ePif3j4Pxes33cNbN5Jj" name="Page-1">
        <mxGraphModel dx="502" dy="563" grid="1" gridSize="10" guides="1" tooltips="1" connect="1" arrows="1" fold="1" page="1" pageScale="1" pageWidth="850" pageHeight="1100" math="0" shadow="0">
            <root>
                <mxCell id="0"/>
                <mxCell id="1" parent="0"/>
                <mxCell id="2" value="POSTS" style="rounded=1;whiteSpace=wrap;html=1;" vertex="1" parent="1">
                    <mxGeometry x="170" y="100" width="120" height="60" as="geometry"/>
                </mxCell>
                <mxCell id="3" value="titulo" style="rounded=1;whiteSpace=wrap;html=1;arcSize=45;" vertex="1" parent="1">
                    <mxGeometry x="180" y="20" width="100" height="30" as="geometry"/>
                </mxCell>
                <mxCell id="6" value="" style="endArrow=none;html=1;entryX=0.5;entryY=0;entryDx=0;entryDy=0;exitX=0.5;exitY=1;exitDx=0;exitDy=0;" edge="1" parent="1" source="3" target="2">
                    <mxGeometry width="50" height="50" relative="1" as="geometry">
                        <mxPoint x="200" y="160" as="sourcePoint"/>
                        <mxPoint x="250" y="110" as="targetPoint"/>
                    </mxGeometry>
                </mxCell>
                <mxCell id="8" value="Fecha_Publicacion" style="rounded=1;whiteSpace=wrap;html=1;arcSize=47;" vertex="1" parent="1">
                    <mxGeometry x="310" y="20" width="140" height="30" as="geometry"/>
                </mxCell>
                <mxCell id="10" value="" style="endArrow=none;html=1;exitX=1;exitY=0.5;exitDx=0;exitDy=0;entryX=0.5;entryY=1;entryDx=0;entryDy=0;" edge="1" parent="1" source="2" target="8">
                    <mxGeometry width="50" height="50" relative="1" as="geometry">
                        <mxPoint x="290" y="140" as="sourcePoint"/>
                        <mxPoint x="340" y="90" as="targetPoint"/>
                    </mxGeometry>
                </mxCell>
                <mxCell id="11" value="Contenido" style="rounded=1;whiteSpace=wrap;html=1;arcSize=41;" vertex="1" parent="1">
                    <mxGeometry x="330" y="100" width="120" height="30" as="geometry"/>
                </mxCell>
                <mxCell id="12" value="" style="endArrow=none;html=1;exitX=1;exitY=0.5;exitDx=0;exitDy=0;entryX=0;entryY=0.5;entryDx=0;entryDy=0;" edge="1" parent="1" source="2" target="11">
                    <mxGeometry width="50" height="50" relative="1" as="geometry">
                        <mxPoint x="310" y="200" as="sourcePoint"/>
                        <mxPoint x="360" y="150" as="targetPoint"/>
                    </mxGeometry>
                </mxCell>
                <mxCell id="14" value="Contenido" style="rounded=1;whiteSpace=wrap;html=1;arcSize=41;" vertex="1" parent="1">
                    <mxGeometry x="20" y="160" width="120" height="30" as="geometry"/>
                </mxCell>
                <mxCell id="15" value="" style="endArrow=none;html=1;" edge="1" parent="1" source="2">
                    <mxGeometry width="50" height="50" relative="1" as="geometry">
                        <mxPoint x="290" y="180" as="sourcePoint"/>
                        <mxPoint x="230" y="200" as="targetPoint"/>
                    </mxGeometry>
                </mxCell>
                <mxCell id="16" value="Etiquetas" style="rounded=1;whiteSpace=wrap;html=1;arcSize=50;" vertex="1" parent="1">
                    <mxGeometry x="20" y="165" width="120" height="20" as="geometry"/>
                </mxCell>
                <mxCell id="17" value="id" style="rounded=1;whiteSpace=wrap;html=1;arcSize=45;" vertex="1" parent="1">
                    <mxGeometry x="20" y="90" width="100" height="30" as="geometry"/>
                </mxCell>
                <mxCell id="18" value="" style="endArrow=none;html=1;entryX=0;entryY=0.5;entryDx=0;entryDy=0;exitX=1;exitY=0.5;exitDx=0;exitDy=0;" edge="1" parent="1" source="17" target="2">
                    <mxGeometry width="50" height="50" relative="1" as="geometry">
                        <mxPoint x="110" y="190" as="sourcePoint"/>
                        <mxPoint x="160" y="140" as="targetPoint"/>
                    </mxGeometry>
                </mxCell>
                <mxCell id="19" style="edgeStyle=none;html=1;exitX=0.75;exitY=0;exitDx=0;exitDy=0;entryX=0.833;entryY=0.25;entryDx=0;entryDy=0;entryPerimeter=0;" edge="1" parent="1" source="16" target="16">
                    <mxGeometry relative="1" as="geometry"/>
                </mxCell>
                <mxCell id="20" value="" style="endArrow=none;html=1;exitX=0;exitY=0.5;exitDx=0;exitDy=0;" edge="1" parent="1" source="2">
                    <mxGeometry width="50" height="50" relative="1" as="geometry">
                        <mxPoint x="79.5" y="120" as="sourcePoint"/>
                        <mxPoint x="79.5" y="160" as="targetPoint"/>
                    </mxGeometry>
                </mxCell>
                <mxCell id="21" value="estatus" style="rounded=1;whiteSpace=wrap;html=1;arcSize=45;" vertex="1" parent="1">
                    <mxGeometry x="180" y="200" width="100" height="30" as="geometry"/>
                </mxCell>
                <mxCell id="22" value="Entidad" style="text;html=1;strokeColor=none;fillColor=none;align=center;verticalAlign=middle;whiteSpace=wrap;rounded=0;" vertex="1" parent="1">
                    <mxGeometry x="200" y="130" width="60" height="30" as="geometry"/>
                </mxCell>
                <mxCell id="23" value="USUARIOS" style="rounded=1;whiteSpace=wrap;html=1;" vertex="1" parent="1">
                    <mxGeometry x="170" y="380" width="120" height="60" as="geometry"/>
                </mxCell>
                <mxCell id="24" value="login" style="rounded=1;whiteSpace=wrap;html=1;arcSize=45;" vertex="1" parent="1">
                    <mxGeometry x="180" y="300" width="100" height="30" as="geometry"/>
                </mxCell>
                <mxCell id="25" value="" style="endArrow=none;html=1;entryX=0.5;entryY=0;entryDx=0;entryDy=0;exitX=0.5;exitY=1;exitDx=0;exitDy=0;" edge="1" parent="1" source="24" target="23">
                    <mxGeometry width="50" height="50" relative="1" as="geometry">
                        <mxPoint x="200" y="440" as="sourcePoint"/>
                        <mxPoint x="250" y="390" as="targetPoint"/>
                    </mxGeometry>
                </mxCell>
                <mxCell id="26" value="password" style="rounded=1;whiteSpace=wrap;html=1;arcSize=47;" vertex="1" parent="1">
                    <mxGeometry x="310" y="300" width="140" height="30" as="geometry"/>
                </mxCell>
                <mxCell id="27" value="" style="endArrow=none;html=1;exitX=1;exitY=0.5;exitDx=0;exitDy=0;entryX=0.5;entryY=1;entryDx=0;entryDy=0;" edge="1" parent="1" source="23" target="26">
                    <mxGeometry width="50" height="50" relative="1" as="geometry">
                        <mxPoint x="290" y="420" as="sourcePoint"/>
                        <mxPoint x="340" y="370" as="targetPoint"/>
                    </mxGeometry>
                </mxCell>
                <mxCell id="28" value="apodo" style="rounded=1;whiteSpace=wrap;html=1;arcSize=41;" vertex="1" parent="1">
                    <mxGeometry x="330" y="380" width="120" height="30" as="geometry"/>
                </mxCell>
                <mxCell id="29" value="" style="endArrow=none;html=1;exitX=1;exitY=0.5;exitDx=0;exitDy=0;entryX=0;entryY=0.5;entryDx=0;entryDy=0;" edge="1" parent="1" source="23" target="28">
                    <mxGeometry width="50" height="50" relative="1" as="geometry">
                        <mxPoint x="310" y="480" as="sourcePoint"/>
                        <mxPoint x="360" y="430" as="targetPoint"/>
                    </mxGeometry>
                </mxCell>
                <mxCell id="30" value="Contenido" style="rounded=1;whiteSpace=wrap;html=1;arcSize=41;" vertex="1" parent="1">
                    <mxGeometry x="20" y="440" width="120" height="30" as="geometry"/>
                </mxCell>
                <mxCell id="31" value="" style="endArrow=none;html=1;" edge="1" parent="1" source="23">
                    <mxGeometry width="50" height="50" relative="1" as="geometry">
                        <mxPoint x="290" y="460" as="sourcePoint"/>
                        <mxPoint x="230" y="480" as="targetPoint"/>
                    </mxGeometry>
                </mxCell>
                <mxCell id="33" value="id" style="rounded=1;whiteSpace=wrap;html=1;arcSize=45;" vertex="1" parent="1">
                    <mxGeometry x="20" y="370" width="100" height="30" as="geometry"/>
                </mxCell>
                <mxCell id="34" value="" style="endArrow=none;html=1;entryX=0;entryY=0.5;entryDx=0;entryDy=0;exitX=1;exitY=0.5;exitDx=0;exitDy=0;" edge="1" parent="1" source="33" target="23">
                    <mxGeometry width="50" height="50" relative="1" as="geometry">
                        <mxPoint x="110" y="470" as="sourcePoint"/>
                        <mxPoint x="160" y="420" as="targetPoint"/>
                    </mxGeometry>
                </mxCell>
                <mxCell id="37" value="email" style="rounded=1;whiteSpace=wrap;html=1;arcSize=45;" vertex="1" parent="1">
                    <mxGeometry x="180" y="480" width="100" height="30" as="geometry"/>
                </mxCell>
                <mxCell id="38" value="Entidad" style="text;html=1;strokeColor=none;fillColor=none;align=center;verticalAlign=middle;whiteSpace=wrap;rounded=0;" vertex="1" parent="1">
                    <mxGeometry x="200" y="410" width="60" height="30" as="geometry"/>
                </mxCell>
                <mxCell id="39" value="No es recomendable usar el email como ID, puede afectar si el usuario lo cambia" style="text;html=1;strokeColor=none;fillColor=none;align=center;verticalAlign=middle;whiteSpace=wrap;rounded=0;" vertex="1" parent="1">
                    <mxGeometry x="150" y="520" width="180" height="40" as="geometry"/>
                </mxCell>
                <mxCell id="40" value="CATEGORIA" style="rounded=1;whiteSpace=wrap;html=1;" vertex="1" parent="1">
                    <mxGeometry x="175" y="710" width="120" height="60" as="geometry"/>
                </mxCell>
                <mxCell id="41" value="tema" style="rounded=1;whiteSpace=wrap;html=1;arcSize=45;" vertex="1" parent="1">
                    <mxGeometry x="185" y="640" width="100" height="30" as="geometry"/>
                </mxCell>
                <mxCell id="42" value="" style="endArrow=none;html=1;entryX=0.5;entryY=0;entryDx=0;entryDy=0;exitX=0.5;exitY=1;exitDx=0;exitDy=0;" edge="1" parent="1" source="41" target="40">
                    <mxGeometry width="50" height="50" relative="1" as="geometry">
                        <mxPoint x="205" y="770" as="sourcePoint"/>
                        <mxPoint x="255" y="720" as="targetPoint"/>
                    </mxGeometry>
                </mxCell>
                <mxCell id="50" value="Fecha_creada" style="rounded=1;whiteSpace=wrap;html=1;arcSize=45;" vertex="1" parent="1">
                    <mxGeometry x="40" y="725" width="100" height="30" as="geometry"/>
                </mxCell>
                <mxCell id="51" value="" style="endArrow=none;html=1;entryX=0;entryY=0.5;entryDx=0;entryDy=0;exitX=1;exitY=0.5;exitDx=0;exitDy=0;" edge="1" parent="1" source="50" target="40">
                    <mxGeometry width="50" height="50" relative="1" as="geometry">
                        <mxPoint x="115" y="800" as="sourcePoint"/>
                        <mxPoint x="165" y="750" as="targetPoint"/>
                    </mxGeometry>
                </mxCell>
                <mxCell id="53" value="" style="endArrow=none;html=1;exitX=0.5;exitY=1;exitDx=0;exitDy=0;entryX=0.5;entryY=0;entryDx=0;entryDy=0;" edge="1" parent="1" source="55" target="47">
                    <mxGeometry width="50" height="50" relative="1" as="geometry">
                        <mxPoint x="84.5" y="730" as="sourcePoint"/>
                        <mxPoint x="84.5" y="770" as="targetPoint"/>
                    </mxGeometry>
                </mxCell>
                <mxCell id="55" value="Entidad" style="text;html=1;strokeColor=none;fillColor=none;align=center;verticalAlign=middle;whiteSpace=wrap;rounded=0;" vertex="1" parent="1">
                    <mxGeometry x="205" y="740" width="60" height="30" as="geometry"/>
                </mxCell>
                <mxCell id="57" value="" style="group" vertex="1" connectable="0" parent="1">
                    <mxGeometry x="175" y="805" width="120" height="30" as="geometry"/>
                </mxCell>
                <mxCell id="47" value="" style="rounded=1;whiteSpace=wrap;html=1;arcSize=41;gradientColor=none;" vertex="1" parent="57">
                    <mxGeometry width="120" height="30" as="geometry"/>
                </mxCell>
                <mxCell id="49" value="Etiquetas" style="rounded=1;whiteSpace=wrap;html=1;arcSize=50;gradientColor=none;" vertex="1" parent="57">
                    <mxGeometry x="2.5" y="5" width="115" height="20" as="geometry"/>
                </mxCell>
                <mxCell id="58" value="" style="group" vertex="1" connectable="0" parent="1">
                    <mxGeometry x="20" y="440" width="120" height="25" as="geometry"/>
                </mxCell>
                <mxCell id="32" value="Etiquetas" style="rounded=1;whiteSpace=wrap;html=1;arcSize=50;" vertex="1" parent="58">
                    <mxGeometry y="5" width="120" height="20" as="geometry"/>
                </mxCell>
                <mxCell id="36" value="" style="endArrow=none;html=1;exitX=0;exitY=0.5;exitDx=0;exitDy=0;" edge="1" parent="58" source="23">
                    <mxGeometry width="50" height="50" relative="1" as="geometry">
                        <mxPoint x="59.5" y="-40" as="sourcePoint"/>
                        <mxPoint x="59.5" as="targetPoint"/>
                    </mxGeometry>
                </mxCell>
            </root>
        </mxGraphModel>
    </diagram>
</mxfile>